{"title":"Puddle Of Mudd - Striking That Familiar Chord + EXCLUSIVE Acoust","uid":6258643,"size":1835554221,"categoryP":"video","categoryS":"music_videos","magnet":"?xt=urn:btih:f5f03df1212782b13a4c1065ed79ef415dc578a9&amp;dn=Puddle+Of+Mudd+-+Striking+That+Familiar+Chord+%2B+EXCLUSIVE+Acoust&amp;tr=udp%3A%2F%2Ftracker.openbittorrent.com%3A80&amp;tr=udp%3A%2F%2Fopen.demonii.com%3A1337&amp;tr=udp%3A%2F%2Ftracker.coppersurfer.tk%3A6969&amp;tr=udp%3A%2F%2Fexodus.desync.com%3A6969","seeders":0,"leechers":1,"uploader":"nightcrawler218","files":8,"time":1300674124,"description":"Puddle of Mudd is an American alternative rock band from Kansas City, Missouri. They achieved success on rock radio and some success in the mainstream, and their major-label debut Come Clean has sold over 5 million copies. To date the band has sold over 7 million albums, and have had a string of #1 mainstream rock singles in the United States.[2] They have released 2 independent and 4 major albums, with their latest being Volume 4: Songs in the Key of Love &amp; Hate in December 2009.\n\nSTRIKING THAT FAMILIAR CHORD isthe full live performance Puddle Of Mudd in the 'Key Club' (San Diego) 16 November 2004 the first year. The group played many of their best songs, including &quot;Away From Me&quot;, &quot;She Hates Me&quot; and &quot;Blurry&quot;. As a bonus attached a small acoustic set of music and commentary.\n\n\n\nFILE INFO:\n\nVideo\nID                               : 0\nFormat                           : MPEG-4 Visual\nFormat profile                   : Advanced Simple@L5\nFormat settings, BVOP            : 1\nFormat settings, QPel            : No\nFormat settings, GMC             : No warppoints\nFormat settings, Matrix          : Custom\nCodec ID                         : XVID\nCodec ID/Hint                    : XviD\nDuration                         : 19mn 57s\nBit rate                         : 2 323 Kbps\nWidth                            : 720 pixels\nHeight                           : 544 pixels\nDisplay aspect ratio             : 4:3\nFrame rate                       : 25.000 fps\nColor space                      : YUV\nChroma subsampling               : 4:2:0\nBit depth                        : 8 bits\nScan type                        : Progressive\nCompression mode                 : Lossy\nBits/(Pixel*Frame)               : 0.237\nStream size                      : 332 MiB (95%)\nWriting library                  : XviD 1.2.0.dev47 (UTC 2006-11-01)\n\nAudio\nID                               : 1\nFormat                           : MPEG Audio\nFormat version                   : Version 1\nFormat profile                   : Layer 3\nMode                             : Joint stereo\nMode extension                   : MS Stereo\nCodec ID                         : 55\nCodec ID/Hint                    : MP3\nDuration                         : 19mn 55s\nBit rate mode                    : Variable\nBit rate                         : 116 Kbps\nNominal bit rate                 : 128 Kbps\nChannel(s)                       : 2 channels\nSampling rate                    : 48.0 KHz\nCompression mode                 : Lossy\nStream size                      : 16.5 MiB (5%)\nAlignment                        : Aligned on interleaves\nInterleave, duration             : 24 ms (0.60 video frame)\nInterleave, preload duration     : 159 ms\nWriting library                  : LAME3.97b\nEncoding settings                : -m j -V 4 -q 2 -lowpass 17 --abr 128\nLanguage                         : English","torrent":{"xt":"urn:btih:f5f03df1212782b13a4c1065ed79ef415dc578a9","amp;dn":"Puddle+Of+Mudd+-+Striking+That+Familiar+Chord+%2B+EXCLUSIVE+Acoust","amp;tr":["udp%3A%2F%2Ftracker.openbittorrent.com%3A80","udp%3A%2F%2Fopen.demonii.com%3A1337","udp%3A%2F%2Ftracker.coppersurfer.tk%3A6969","udp%3A%2F%2Fexodus.desync.com%3A6969"],"infoHash":"f5f03df1212782b13a4c1065ed79ef415dc578a9","infoHashBuffer":{"type":"Buffer","data":[245,240,61,241,33,39,130,177,58,76,16,101,237,121,239,65,93,197,120,169]},"announce":[],"urlList":[]}}